<svg xmlns="http://www.w3.org/2000/svg" width="22" height="14" viewBox="0 0 22 14">
  <path fill-rule="evenodd" fill="rgb(255, 255, 255)" d="M6.000,14.000 L6.000,12.000 L22.000,12.000 L22.000,14.000 L6.000,14.000 ZM6.000,6.000 L22.000,6.000 L22.000,8.000 L6.000,8.000 L6.000,6.000 ZM6.000,-0.000 L22.000,-0.000 L22.000,2.000 L6.000,2.000 L6.000,-0.000 ZM-0.000,12.000 L3.000,12.000 L3.000,14.000 L-0.000,14.000 L-0.000,12.000 ZM-0.000,6.000 L3.000,6.000 L3.000,8.000 L-0.000,8.000 L-0.000,6.000 ZM-0.000,-0.000 L3.000,-0.000 L3.000,2.000 L-0.000,2.000 L-0.000,-0.000 Z" />
</svg>