<svg xmlns="http://www.w3.org/2000/svg" width="20" height="14" viewBox="0 0 20 14">
  <path fill-rule="evenodd" fill="rgb(27, 36, 51)" d="M5.625,13.031 L5.625,11.312 L19.437,11.312 L19.437,13.031 L5.625,13.031 ZM5.625,6.125 L19.437,6.125 L19.437,7.875 L5.625,7.875 L5.625,6.125 ZM5.625,0.969 L19.437,0.969 L19.437,2.687 L5.625,2.687 L5.625,0.969 ZM0.438,11.312 L3.031,11.312 L3.031,13.031 L0.438,13.031 L0.438,11.312 ZM0.438,6.125 L3.031,6.125 L3.031,7.875 L0.438,7.875 L0.438,6.125 ZM0.438,0.969 L3.031,0.969 L3.031,2.687 L0.438,2.687 L0.438,0.969 Z" />
</svg>