<svg xmlns="http://www.w3.org/2000/svg" xmlns:xlink="http://www.w3.org/1999/xlink" version="1.1" x="0px" y="0px" viewBox="0 0 60 75" enable-background="new 0 0 60 60" xml:space="preserve"><path fill="#000000" d="M48.768,45.232l-8.798-8.798c-0.063-0.063-0.135-0.111-0.204-0.166c5.104-7.106,4.481-17.054-1.907-23.442  C34.308,9.275,29.654,7.5,25,7.5c-4.654,0-9.308,1.775-12.859,5.326c-7.102,7.102-7.102,18.616,0,25.718  c3.551,3.551,8.205,5.326,12.859,5.326c4.026,0,8.048-1.335,11.36-3.992c0.026,0.029,0.046,0.062,0.074,0.09l8.798,8.798  C45.72,49.256,46.36,49.5,47,49.5s1.28-0.244,1.768-0.732C49.744,47.791,49.744,46.208,48.768,45.232z M25,38.871  c-3.522,0-6.833-1.372-9.324-3.862c-5.141-5.141-5.141-13.506,0-18.647c2.49-2.49,5.802-3.862,9.324-3.862s6.833,1.372,9.324,3.862  c5.141,5.141,5.141,13.506,0,18.647C31.833,37.499,28.522,38.871,25,38.871z"/><text x="0" y="75" fill="#000000" font-size="5px" font-weight="bold" font-family="'Helvetica Neue', Helvetica, Arial-Unicode, Arial, Sans-serif">Created by Dmitrij</text><text x="0" y="80" fill="#000000" font-size="5px" font-weight="bold" font-family="'Helvetica Neue', Helvetica, Arial-Unicode, Arial, Sans-serif">from the Noun Project</text></svg>